<?xml version="1.0" encoding="UTF-8" standalone="no"?>
<!DOCTYPE svg PUBLIC "-//W3C//DTD SVG 1.1//EN"
 "http://www.w3.org/Graphics/SVG/1.1/DTD/svg11.dtd">
<!-- Generated by graphviz version 2.43.0 (0)
 -->
<!-- Title: %3 Pages: 1 -->
<svg width="1182pt" height="218pt"
 viewBox="0.00 0.00 1182.29 218.00" xmlns="http://www.w3.org/2000/svg" xmlns:xlink="http://www.w3.org/1999/xlink">
<g id="graph0" class="graph" transform="scale(1 1) rotate(0) translate(4 214)">
<title>%3</title>
<polygon fill="white" stroke="transparent" points="-4,4 -4,-214 1178.29,-214 1178.29,4 -4,4"/>
<!-- PO -->
<g id="node1" class="node">
<title>PO</title>
<polygon fill="#ffe082" stroke="black" points="162,-210 0,-210 0,-174 162,-174 162,-210"/>
<text text-anchor="middle" x="81" y="-188.3" font-family="Times,serif" font-size="14.00">ProductOwnerAgent</text>
</g>
<!-- DEV -->
<g id="node2" class="node">
<title>DEV</title>
<polygon fill="#81d4fa" stroke="black" points="146.5,-123 15.5,-123 15.5,-87 146.5,-87 146.5,-123"/>
<text text-anchor="middle" x="81" y="-101.3" font-family="Times,serif" font-size="14.00">DeveloperAgent</text>
</g>
<!-- PO&#45;&gt;DEV -->
<g id="edge1" class="edge">
<title>PO&#45;&gt;DEV</title>
<path fill="none" stroke="black" d="M81,-173.8C81,-162.16 81,-146.55 81,-133.24"/>
<polygon fill="black" stroke="black" points="84.5,-133.18 81,-123.18 77.5,-133.18 84.5,-133.18"/>
<text text-anchor="middle" x="154.5" y="-144.8" font-family="Times,serif" font-size="14.00">context_packet.yaml</text>
</g>
<!-- TEST -->
<g id="node3" class="node">
<title>TEST</title>
<polygon fill="#a5d6a7" stroke="black" points="133,-36 29,-36 29,0 133,0 133,-36"/>
<text text-anchor="middle" x="81" y="-14.3" font-family="Times,serif" font-size="14.00">TesterAgent</text>
</g>
<!-- DEV&#45;&gt;TEST -->
<g id="edge2" class="edge">
<title>DEV&#45;&gt;TEST</title>
<path fill="none" stroke="black" d="M81,-86.8C81,-75.16 81,-59.55 81,-46.24"/>
<polygon fill="black" stroke="black" points="84.5,-46.18 81,-36.18 77.5,-46.18 84.5,-46.18"/>
<text text-anchor="middle" x="191" y="-57.8" font-family="Times,serif" font-size="14.00">context_packet.yaml (updated)</text>
</g>
<!-- Global -->
<g id="node4" class="node">
<title>Global</title>
<ellipse fill="#e1f5fe" stroke="black" cx="243" cy="-105" rx="69.59" ry="18"/>
<text text-anchor="middle" x="243" y="-101.3" font-family="Times,serif" font-size="14.00">Global Layer</text>
</g>
<!-- Task -->
<g id="node5" class="node">
<title>Task</title>
<ellipse fill="#e8f5e9" stroke="black" cx="392" cy="-105" rx="61.19" ry="18"/>
<text text-anchor="middle" x="392" y="-101.3" font-family="Times,serif" font-size="14.00">Task Layer</text>
</g>
<!-- Agent -->
<g id="node6" class="node">
<title>Agent</title>
<ellipse fill="#fff3e0" stroke="black" cx="539" cy="-105" rx="67.69" ry="18"/>
<text text-anchor="middle" x="539" y="-101.3" font-family="Times,serif" font-size="14.00">Agent Layer</text>
</g>
<!-- Operational -->
<g id="node7" class="node">
<title>Operational</title>
<ellipse fill="#f3e5f5" stroke="black" cx="719" cy="-105" rx="94.78" ry="18"/>
<text text-anchor="middle" x="719" y="-101.3" font-family="Times,serif" font-size="14.00">Operational Layer</text>
</g>
<!-- Temporal -->
<g id="node8" class="node">
<title>Temporal</title>
<ellipse fill="#fbe9e7" stroke="black" cx="915" cy="-105" rx="83.39" ry="18"/>
<text text-anchor="middle" x="915" y="-101.3" font-family="Times,serif" font-size="14.00">Temporal Layer</text>
</g>
<!-- Security -->
<g id="node9" class="node">
<title>Security</title>
<ellipse fill="#e0f2f1" stroke="black" cx="1095" cy="-105" rx="79.09" ry="18"/>
<text text-anchor="middle" x="1095" y="-101.3" font-family="Times,serif" font-size="14.00">Security Layer</text>
</g>
<!-- context_packet.yaml -->
<g id="node10" class="node">
<title>context_packet.yaml</title>
<ellipse fill="none" stroke="black" cx="629" cy="-192" rx="105.88" ry="18"/>
<text text-anchor="middle" x="629" y="-188.3" font-family="Times,serif" font-size="14.00">context_packet.yaml</text>
</g>
<!-- context_packet.yaml&#45;&gt;Global -->
<g id="edge3" class="edge">
<title>context_packet.yaml&#45;&gt;Global</title>
<path fill="none" stroke="black" stroke-dasharray="5,2" d="M566.98,-177.34C491.22,-160.66 364.47,-132.75 294.07,-117.25"/>
</g>
<!-- context_packet.yaml&#45;&gt;Task -->
<g id="edge4" class="edge">
<title>context_packet.yaml&#45;&gt;Task</title>
<path fill="none" stroke="black" stroke-dasharray="5,2" d="M585.81,-175.51C541.08,-159.47 471.91,-134.66 429.44,-119.43"/>
</g>
<!-- context_packet.yaml&#45;&gt;Agent -->
<g id="edge5" class="edge">
<title>context_packet.yaml&#45;&gt;Agent</title>
<path fill="none" stroke="black" stroke-dasharray="5,2" d="M611.22,-174.21C595.34,-159.21 572.21,-137.37 556.44,-122.47"/>
</g>
<!-- context_packet.yaml&#45;&gt;Operational -->
<g id="edge6" class="edge">
<title>context_packet.yaml&#45;&gt;Operational</title>
<path fill="none" stroke="black" stroke-dasharray="5,2" d="M646.78,-174.21C662.56,-159.31 685.49,-137.65 701.26,-122.76"/>
</g>
<!-- context_packet.yaml&#45;&gt;Temporal -->
<g id="edge7" class="edge">
<title>context_packet.yaml&#45;&gt;Temporal</title>
<path fill="none" stroke="black" stroke-dasharray="5,2" d="M679.14,-176.1C732.49,-160.24 816.21,-135.36 868.23,-119.9"/>
</g>
<!-- context_packet.yaml&#45;&gt;Security -->
<g id="edge8" class="edge">
<title>context_packet.yaml&#45;&gt;Security</title>
<path fill="none" stroke="black" stroke-dasharray="5,2" d="M699.76,-178.55C775.75,-165.12 899.99,-142.96 1007,-123 1016.64,-121.2 1026.86,-119.26 1036.8,-117.35"/>
</g>
</g>
</svg>
