<?xml version="1.0" encoding="UTF-8" standalone="no"?>
<!DOCTYPE svg PUBLIC "-//W3C//DTD SVG 1.1//EN"
 "http://www.w3.org/Graphics/SVG/1.1/DTD/svg11.dtd">
<!-- Generated by graphviz version 2.43.0 (0)
 -->
<!-- Title: %3 Pages: 1 -->
<svg width="522pt" height="357pt"
 viewBox="0.00 0.00 521.50 357.00" xmlns="http://www.w3.org/2000/svg" xmlns:xlink="http://www.w3.org/1999/xlink">
<g id="graph0" class="graph" transform="scale(1 1) rotate(0) translate(4 353)">
<title>%3</title>
<polygon fill="white" stroke="transparent" points="-4,4 -4,-353 517.5,-353 517.5,4 -4,4"/>
<!-- Global -->
<g id="node1" class="node">
<title>Global</title>
<polygon fill="#e3f2fd" stroke="black" points="344,-349 201,-349 201,-311 344,-311 344,-349"/>
<text text-anchor="middle" x="272.5" y="-333.8" font-family="Times,serif" font-size="14.00">GLOBAL LAYER</text>
<text text-anchor="middle" x="272.5" y="-318.8" font-family="Times,serif" font-size="14.00">Immutable truths</text>
</g>
<!-- Task -->
<g id="node2" class="node">
<title>Task</title>
<polygon fill="#bbdefb" stroke="black" points="340.5,-275 204.5,-275 204.5,-237 340.5,-237 340.5,-275"/>
<text text-anchor="middle" x="272.5" y="-259.8" font-family="Times,serif" font-size="14.00">TASK LAYER</text>
<text text-anchor="middle" x="272.5" y="-244.8" font-family="Times,serif" font-size="14.00">Task state, goals</text>
</g>
<!-- Global&#45;&gt;Task -->
<g id="edge1" class="edge">
<title>Global&#45;&gt;Task</title>
<path fill="none" stroke="black" d="M272.5,-310.83C272.5,-303.13 272.5,-293.97 272.5,-285.42"/>
<polygon fill="black" stroke="black" points="276,-285.41 272.5,-275.41 269,-285.41 276,-285.41"/>
</g>
<!-- Agent -->
<g id="node3" class="node">
<title>Agent</title>
<polygon fill="#90caf9" stroke="black" points="359,-201 186,-201 186,-163 359,-163 359,-201"/>
<text text-anchor="middle" x="272.5" y="-185.8" font-family="Times,serif" font-size="14.00">AGENT LAYER</text>
<text text-anchor="middle" x="272.5" y="-170.8" font-family="Times,serif" font-size="14.00">Role, memory, budget</text>
</g>
<!-- Task&#45;&gt;Agent -->
<g id="edge2" class="edge">
<title>Task&#45;&gt;Agent</title>
<path fill="none" stroke="black" d="M272.5,-236.83C272.5,-229.13 272.5,-219.97 272.5,-211.42"/>
<polygon fill="black" stroke="black" points="276,-211.41 272.5,-201.41 269,-211.41 276,-211.41"/>
</g>
<!-- Operational -->
<g id="node4" class="node">
<title>Operational</title>
<polygon fill="#b2dfdb" stroke="black" points="177,-127 0,-127 0,-74 177,-74 177,-127"/>
<text text-anchor="middle" x="88.5" y="-111.8" font-family="Times,serif" font-size="14.00">OPERATIONAL LAYER</text>
<text text-anchor="middle" x="88.5" y="-96.8" font-family="Times,serif" font-size="14.00">Execution state</text>
<text text-anchor="middle" x="88.5" y="-81.8" font-family="Times,serif" font-size="14.00">Live resources</text>
</g>
<!-- Agent&#45;&gt;Operational -->
<g id="edge3" class="edge">
<title>Agent&#45;&gt;Operational</title>
<path fill="none" stroke="black" d="M230.75,-162.96C208.94,-153.54 181.69,-141.76 156.89,-131.05"/>
<polygon fill="black" stroke="black" points="158.09,-127.76 147.53,-127 155.32,-134.18 158.09,-127.76"/>
</g>
<!-- Temporal -->
<g id="node5" class="node">
<title>Temporal</title>
<polygon fill="#c8e6c9" stroke="black" points="349.5,-127 195.5,-127 195.5,-74 349.5,-74 349.5,-127"/>
<text text-anchor="middle" x="272.5" y="-111.8" font-family="Times,serif" font-size="14.00">TEMPORAL LAYER</text>
<text text-anchor="middle" x="272.5" y="-96.8" font-family="Times,serif" font-size="14.00">Sprint logs</text>
<text text-anchor="middle" x="272.5" y="-81.8" font-family="Times,serif" font-size="14.00">Forecasting</text>
</g>
<!-- Agent&#45;&gt;Temporal -->
<g id="edge4" class="edge">
<title>Agent&#45;&gt;Temporal</title>
<path fill="none" stroke="black" d="M272.5,-162.96C272.5,-155.32 272.5,-146.14 272.5,-137.23"/>
<polygon fill="black" stroke="black" points="276,-137 272.5,-127 269,-137 276,-137"/>
</g>
<!-- Security -->
<g id="node6" class="node">
<title>Security</title>
<polygon fill="#ffcdd2" stroke="black" points="513.5,-127 367.5,-127 367.5,-74 513.5,-74 513.5,-127"/>
<text text-anchor="middle" x="440.5" y="-111.8" font-family="Times,serif" font-size="14.00">SECURITY LAYER</text>
<text text-anchor="middle" x="440.5" y="-96.8" font-family="Times,serif" font-size="14.00">Role scopes</text>
<text text-anchor="middle" x="440.5" y="-81.8" font-family="Times,serif" font-size="14.00">Context redaction</text>
</g>
<!-- Agent&#45;&gt;Security -->
<g id="edge5" class="edge">
<title>Agent&#45;&gt;Security</title>
<path fill="none" stroke="black" d="M310.62,-162.96C330.36,-153.62 354.98,-141.97 377.46,-131.33"/>
<polygon fill="black" stroke="black" points="379.07,-134.44 386.61,-127 376.07,-128.12 379.07,-134.44"/>
</g>
<!-- Context -->
<g id="node7" class="node">
<title>Context</title>
<polygon fill="#d1c4e9" stroke="black" points="353,-38 192,-38 192,0 353,0 353,-38"/>
<text text-anchor="middle" x="272.5" y="-22.8" font-family="Times,serif" font-size="14.00">CONTEXT PACKET</text>
<text text-anchor="middle" x="272.5" y="-7.8" font-family="Times,serif" font-size="14.00">Unified downstream</text>
</g>
<!-- Operational&#45;&gt;Context -->
<g id="edge8" class="edge">
<title>Operational&#45;&gt;Context</title>
<path fill="none" stroke="black" d="M147.73,-73.91C171.46,-63.66 198.54,-51.96 221.39,-42.08"/>
<polygon fill="black" stroke="black" points="222.78,-45.29 230.57,-38.12 220.01,-38.87 222.78,-45.29"/>
</g>
<!-- Temporal&#45;&gt;Context -->
<g id="edge7" class="edge">
<title>Temporal&#45;&gt;Context</title>
<path fill="none" stroke="black" d="M272.5,-73.91C272.5,-65.74 272.5,-56.65 272.5,-48.3"/>
<polygon fill="black" stroke="black" points="276,-48.24 272.5,-38.24 269,-48.24 276,-48.24"/>
</g>
<!-- Security&#45;&gt;Context -->
<g id="edge6" class="edge">
<title>Security&#45;&gt;Context</title>
<path fill="none" stroke="black" d="M386.42,-73.91C365.04,-63.79 340.69,-52.27 320,-42.48"/>
<polygon fill="black" stroke="black" points="321.32,-39.23 310.78,-38.12 318.32,-45.56 321.32,-39.23"/>
</g>
</g>
</svg>
